<?xml version="1.0" encoding="utf-8"?>
<!-- Generator: Adobe Illustrator 24.1.3, SVG Export Plug-In . SVG Version: 6.00 Build 0)  -->
<svg version="1.1" id="Layer_1" xmlns="http://www.w3.org/2000/svg" xmlns:xlink="http://www.w3.org/1999/xlink" x="0px" y="0px"
	 viewBox="0 0 30 30" style="enable-background:new 0 0 30 30;" xml:space="preserve">
<style type="text/css">
	.st0{fill:#333333;}
</style>
<g>
	<path class="st0" d="M19.7,6.2C19.8,6.2,19.8,6.2,19.7,6.2l0.1,19.3c0,0,0,0-0.1,0h-9.5c0,0-0.1,0-0.1,0V6.3c0,0,0,0,0.1,0H19.7
		 M19.7,5.4h-9.5c-0.5,0-0.9,0.4-0.9,0.8v19.3c0,0.5,0.4,0.8,0.9,0.8h9.5c0.5,0,0.9-0.4,0.9-0.8V6.3C20.7,5.8,20.2,5.4,19.7,5.4
		L19.7,5.4z"/>
	<path class="st0" d="M17.2,5.9V4.5c0-0.5-0.4-0.8-0.9-0.8h-2.5c-0.5,0-0.9,0.4-0.9,0.8v1.4H17.2z"/>
	<rect x="10.9" y="18.2" class="st0" width="8.2" height="2.9"/>
	<rect x="10.9" y="21.9" class="st0" width="8.2" height="2.9"/>
</g>
</svg>
